<svg xmlns="http://www.w3.org/2000/svg" version="1.1" xmlns:xlink="http://www.w3.org/1999/xlink" xmlns:svgjs="http://svgjs.dev/svgjs" width="1500" height="1500" viewBox="0 0 1500 1500"><rect width="1500" height="1500" fill="#ffffff"></rect><g transform="matrix(0.6666666666666666,0,0,0.6666666666666666,248.76890756302515,655.2645335135911)"><svg viewBox="0 0 357 67" data-background-color="#dedede" preserveAspectRatio="xMidYMid meet" height="281" width="1500" xmlns="http://www.w3.org/2000/svg" xmlns:xlink="http://www.w3.org/1999/xlink"><g id="tight-bounds" transform="matrix(1,0,0,1,0.43950000000003797,0.38225758677614863)"><svg viewBox="0 0 356.12052 66.23548482644772" height="66.23548482644772" width="356.12052"><g><svg viewBox="0 0 356.12052 66.23548482644772" height="66.23548482644772" width="356.12052"><g><svg viewBox="0 0 356.12052 66.23548482644772" height="66.23548482644772" width="356.12052"><g><path d="M0 66.235v-66.235h356.121v66.235z" fill="#000000" stroke="transparent" stroke-width="0" rx="0%" data-fill-palette-color="tertiary"></path><path d="M3.283 62.952v-59.669h349.554v59.669z" fill="#ffffff" stroke="transparent" stroke-width="0" rx="0%" data-fill-palette-color="quaternary"></path><path d="M9.85 56.386v-46.536h336.421v46.536z" fill="#000000" stroke="transparent" stroke-width="0" data-fill-palette-color="tertiary"></path></g><g transform="matrix(1,0,0,1,19.69974,19.69974)" id="textblocktransform"><svg viewBox="0 0 316.72104 26.83600482644772" height="26.83600482644772" width="316.72104" id="textblock"><g><svg viewBox="0 0 316.72104 26.83600482644772" height="26.83600482644772" width="316.72104"><g transform="matrix(1,0,0,1,0,0)"><svg width="316.72104" viewBox="4.6 -37.35 445.4890322580645 37.75" height="26.83600482644772" data-palette-color="#dedede"><path d="M4.6-35L18.55-35Q25.15-35 28.78-31.88 32.4-28.75 32.4-23.1L32.4-23.1Q32.4-17.2 28.78-13.93 25.15-10.65 18.55-10.65L18.55-10.65 7.9-10.65 10.5-13.25 10.5 0 4.6 0 4.6-35ZM7.9-15.7L18.3-15.7Q22.35-15.7 24.55-17.48 26.75-19.25 26.75-22.95L26.75-22.95Q26.75-26.5 24.55-28.23 22.35-29.95 18.3-29.95L18.3-29.95 7.9-29.95 10.5-32.55 10.5-13.1 7.9-15.7ZM40.05-15.2L56.3-15.2Q56.2-17.45 55.27-19.03 54.35-20.6 52.7-21.48 51.05-22.35 48.9-22.35L48.9-22.35Q46.5-22.35 44.72-21.25 42.95-20.15 41.95-18.18 40.95-16.2 40.95-13.55L40.95-13.55Q40.95-10.7 42.02-8.6 43.1-6.5 45.02-5.35 46.95-4.2 49.45-4.2L49.45-4.2Q53.9-4.2 56.95-7.35L56.95-7.35 60-4.3Q58.05-2.15 55.25-0.98 52.45 0.2 49 0.2L49 0.2Q44.9 0.2 41.85-1.5 38.8-3.2 37.1-6.23 35.4-9.25 35.4-13.25L35.4-13.25Q35.4-17.25 37.1-20.28 38.8-23.3 41.85-25 44.9-26.7 48.85-26.75L48.85-26.75Q53.55-26.75 56.4-24.83 59.25-22.9 60.45-19.4 61.65-15.9 61.3-11.1L61.3-11.1 40.05-11.1 40.05-15.2ZM77.45-26.8L77.45-26.8Q81.15-26.8 83.72-25.18 86.3-23.55 87.67-20.53 89.05-17.5 89-13.3L89-13.3Q89.05-9.1 87.7-6.05 86.34-3 83.77-1.38 81.2 0.25 77.55 0.25L77.55 0.25Q73.75 0.25 70.87-1.48 68-3.2 66.39-6.28 64.8-9.35 64.8-13.35L64.8-13.35Q64.8-17.35 66.39-20.38 68-23.4 70.84-25.1 73.7-26.8 77.45-26.8ZM78.75-22.15L78.75-22.15Q76.34-22.15 74.5-21 72.65-19.85 71.62-17.82 70.59-15.8 70.55-13.2L70.55-13.2Q70.59-10.6 71.62-8.6 72.65-6.6 74.5-5.45 76.34-4.3 78.75-4.3L78.75-4.3Q81.15-4.3 83-5.45 84.84-6.6 85.87-8.6 86.9-10.6 86.9-13.2L86.9-13.2Q86.9-15.85 85.87-17.85 84.84-19.85 83-21 81.15-22.15 78.75-22.15ZM86.9 0L86.9-37.1 92.65-37.1 92.65 0 86.9 0ZM111.54-26.8L111.54-26.8Q115.24-26.8 117.82-25.18 120.39-23.55 121.77-20.53 123.14-17.5 123.09-13.3L123.09-13.3Q123.14-9.1 121.79-6.05 120.44-3 117.87-1.38 115.29 0.25 111.64 0.25L111.64 0.25Q107.84 0.25 104.97-1.48 102.09-3.2 100.49-6.28 98.89-9.35 98.89-13.35L98.89-13.35Q98.89-17.35 100.49-20.38 102.09-23.4 104.94-25.1 107.79-26.8 111.54-26.8ZM112.84-22.15L112.84-22.15Q110.44-22.15 108.59-21 106.74-19.85 105.72-17.82 104.69-15.8 104.64-13.2L104.64-13.2Q104.69-10.6 105.72-8.6 106.74-6.6 108.59-5.45 110.44-4.3 112.84-4.3L112.84-4.3Q115.24-4.3 117.09-5.45 118.94-6.6 119.97-8.6 120.99-10.6 120.99-13.2L120.99-13.2Q120.99-15.85 119.97-17.85 118.94-19.85 117.09-21 115.24-22.15 112.84-22.15ZM120.99 0L120.99-37.1 126.74-37.1 126.74 0 120.99 0ZM137.64-15.2L153.89-15.2Q153.79-17.45 152.87-19.03 151.94-20.6 150.29-21.48 148.64-22.35 146.49-22.35L146.49-22.35Q144.09-22.35 142.31-21.25 140.54-20.15 139.54-18.18 138.54-16.2 138.54-13.55L138.54-13.55Q138.54-10.7 139.62-8.6 140.69-6.5 142.62-5.35 144.54-4.2 147.04-4.2L147.04-4.2Q151.49-4.2 154.54-7.35L154.54-7.35 157.59-4.3Q155.64-2.15 152.84-0.98 150.04 0.2 146.59 0.2L146.59 0.2Q142.49 0.2 139.44-1.5 136.39-3.2 134.69-6.23 132.99-9.25 132.99-13.25L132.99-13.25Q132.99-17.25 134.69-20.28 136.39-23.3 139.44-25 142.49-26.7 146.44-26.75L146.44-26.75Q151.14-26.75 153.99-24.83 156.84-22.9 158.04-19.4 159.24-15.9 158.89-11.1L158.89-11.1 137.64-11.1 137.64-15.2ZM165.14 0L165.14-37.1 170.89-37.1 170.89 0 165.14 0ZM194.59-26.75L194.59-21.55Q191.74-21.7 189.66-20.58 187.59-19.45 186.46-17.45 185.34-15.45 185.34-12.85L185.34-12.85 183.74-13.05Q183.74-17.5 185.04-20.55 186.34-23.6 188.79-25.18 191.24-26.75 194.59-26.75L194.59-26.75ZM179.64 0L179.64-26.55 185.39-26.55 185.39 0 179.64 0ZM216.58-24.15L214.48-20.1Q212.73-21.15 210.66-21.78 208.58-22.4 206.83-22.4L206.83-22.4Q205.13-22.4 204.03-21.75 202.93-21.1 202.93-19.6L202.93-19.6Q202.93-18.35 203.96-17.63 204.98-16.9 206.58-16.4 208.18-15.9 209.98-15.35 211.78-14.8 213.41-13.93 215.03-13.05 216.03-11.55 217.03-10.05 217.03-7.6L217.03-7.6Q217.03-4.9 215.61-3.18 214.18-1.45 211.86-0.63 209.53 0.2 206.83 0.2L206.83 0.2Q203.93 0.2 201.03-0.75 198.13-1.7 196.13-3.5L196.13-3.5 198.18-7.4Q199.93-5.85 202.43-4.98 204.93-4.1 207.08-4.1L207.08-4.1Q208.33-4.1 209.31-4.42 210.28-4.75 210.86-5.4 211.43-6.05 211.43-7.1L211.43-7.1Q211.43-8.5 210.43-9.3 209.43-10.1 207.83-10.63 206.23-11.15 204.43-11.68 202.63-12.2 201.06-13.05 199.48-13.9 198.48-15.35 197.48-16.8 197.48-19.2L197.48-19.2Q197.48-21.9 198.88-23.58 200.28-25.25 202.51-26.03 204.73-26.8 207.28-26.8L207.28-26.8Q209.78-26.8 212.28-26.1 214.78-25.4 216.58-24.15L216.58-24.15ZM236.68 0L236.68-35 242.58-35 242.58 0 236.68 0ZM271.13 0L271.13-15Q271.13-18.1 269.43-19.88 267.73-21.65 264.73-21.65L264.73-21.65Q261.18-21.6 259.15-19.15 257.13-16.7 257.13-13.05L257.13-13.05 255.53-13.05Q255.53-18 256.93-21 258.33-24 260.9-25.38 263.48-26.75 266.98-26.75L266.98-26.75Q270.08-26.75 272.3-25.5 274.53-24.25 275.7-21.98 276.88-19.7 276.88-16.5L276.88-16.5 276.88 0 271.13 0ZM251.43 0L251.43-26.55 257.18-26.55 257.18 0 251.43 0ZM304.27 0L304.27-15Q304.27-18.1 302.57-19.88 300.87-21.65 297.87-21.65L297.87-21.65Q294.32-21.6 292.3-19.15 290.27-16.7 290.27-13.05L290.27-13.05 288.67-13.05Q288.67-18 290.07-21 291.47-24 294.05-25.38 296.62-26.75 300.12-26.75L300.12-26.75Q303.22-26.75 305.45-25.5 307.67-24.25 308.85-21.98 310.02-19.7 310.02-16.5L310.02-16.5 310.02 0 304.27 0ZM284.57 0L284.57-26.55 290.32-26.55 290.32 0 284.57 0ZM373.87-29.95L370.42-25.9Q368.52-28 365.92-29.2 363.32-30.4 360.67-30.4L360.67-30.4Q358.07-30.4 355.79-29.43 353.52-28.45 351.79-26.7 350.07-24.95 349.12-22.63 348.17-20.3 348.17-17.6L348.17-17.6Q348.17-14.95 349.12-12.63 350.07-10.3 351.79-8.55 353.52-6.8 355.79-5.8 358.07-4.8 360.67-4.8L360.67-4.8Q363.32-4.8 365.87-5.93 368.42-7.05 370.42-9L370.42-9 373.92-5.35Q372.17-3.6 369.94-2.3 367.72-1 365.29-0.3 362.87 0.4 360.37 0.4L360.37 0.4Q356.52 0.4 353.22-0.98 349.92-2.35 347.44-4.8 344.97-7.25 343.57-10.53 342.17-13.8 342.17-17.55L342.17-17.55Q342.17-21.3 343.57-24.53 344.97-27.75 347.49-30.2 350.02-32.65 353.34-34 356.67-35.35 360.57-35.35L360.57-35.35Q363.07-35.35 365.47-34.7 367.87-34.05 370.02-32.85 372.17-31.65 373.87-29.95L373.87-29.95ZM396.21-11.85L388.26-11.85Q385.46-11.85 384.11-11 382.76-10.15 382.76-8.2L382.76-8.2Q382.76-6.35 384.14-5.25 385.51-4.15 387.91-4.15L387.91-4.15Q390.06-4.15 391.76-4.9 393.46-5.65 394.46-6.93 395.46-8.2 395.51-9.8L395.51-9.8 396.61-4.95Q395.36-2.35 392.81-1.05 390.26 0.25 386.71 0.25L386.71 0.25Q383.86 0.25 381.76-0.85 379.66-1.95 378.51-3.83 377.36-5.7 377.36-8L377.36-8Q377.36-11.6 379.99-13.75 382.61-15.9 387.41-15.95L387.41-15.95 396.21-15.95 396.21-11.85ZM395.51 0L395.46-16.85Q395.46-19.45 393.86-20.9 392.26-22.35 389.11-22.35L389.11-22.35Q387.21-22.35 385.24-21.65 383.26-20.95 381.26-19.6L381.26-19.6 378.91-23.3Q380.76-24.45 382.41-25.2 384.06-25.95 385.94-26.35 387.81-26.75 390.36-26.75L390.36-26.75Q395.51-26.75 398.29-24.28 401.06-21.8 401.11-17.45L401.11-17.45 401.16 0 395.51 0ZM409.96 0L409.96-28.2Q409.96-31.35 411.29-33.38 412.61-35.4 414.71-36.38 416.81-37.35 419.11-37.35L419.11-37.35Q420.31-37.35 421.54-37.02 422.76-36.7 423.81-36.15L423.81-36.15 422.61-31.75Q421.91-32.05 421.04-32.33 420.16-32.6 419.26-32.6L419.26-32.6Q418.31-32.6 417.49-32.23 416.66-31.85 416.16-31.03 415.66-30.2 415.66-28.9L415.66-28.9 415.66 0 409.96 0ZM406.46-21.5L406.46-25.6 422.61-25.6 422.61-21.5 406.46-21.5ZM428.76-15.2L445.01-15.2Q444.91-17.45 443.98-19.03 443.06-20.6 441.41-21.48 439.76-22.35 437.61-22.35L437.61-22.35Q435.21-22.35 433.43-21.25 431.66-20.15 430.66-18.18 429.66-16.2 429.66-13.55L429.66-13.55Q429.66-10.7 430.73-8.6 431.81-6.5 433.73-5.35 435.66-4.2 438.16-4.2L438.16-4.2Q442.61-4.2 445.66-7.35L445.66-7.35 448.71-4.3Q446.76-2.15 443.96-0.98 441.16 0.2 437.71 0.2L437.71 0.2Q433.61 0.2 430.56-1.5 427.51-3.2 425.81-6.23 424.11-9.25 424.11-13.25L424.11-13.25Q424.11-17.25 425.81-20.28 427.51-23.3 430.56-25 433.61-26.7 437.56-26.75L437.56-26.75Q442.26-26.75 445.11-24.83 447.96-22.9 449.16-19.4 450.36-15.9 450.01-11.1L450.01-11.1 428.76-11.1 428.76-15.2Z" opacity="1" transform="matrix(1,0,0,1,0,0)" fill="#ffffff" class="wordmark-text-0" data-fill-palette-color="quaternary" id="text-0"></path></svg></g></svg></g></svg></g></svg></g><g></g></svg></g><defs></defs></svg><rect width="356.12052" height="66.23548482644772" fill="none" stroke="none" visibility="hidden"></rect></g></svg></g></svg>